<mxfile host="www.draw.io" modified="2019-11-12T02:42:17.028Z" agent="Mozilla/5.0 (Macintosh; Intel Mac OS X 10_15_0) AppleWebKit/537.36 (KHTML, like Gecko) Chrome/78.0.3904.97 Safari/537.36" etag="dgYLG2FPjqjs2s-nWKNZ" version="12.2.3" type="github" pages="2">
  <diagram id="k3hv0fbP-AOsvMYZX12A" name="slack-oauth">
    <mxGraphModel dx="931" dy="554" grid="1" gridSize="10" guides="1" tooltips="1" connect="1" arrows="1" fold="1" page="1" pageScale="1" pageWidth="4681" pageHeight="3300" math="0" shadow="0">
      <root>
        <mxCell id="0"/>
        <mxCell id="1" parent="0"/>
        <mxCell id="9naMcL1XCLHJEcqqBxTF-37" value="" style="rounded=1;whiteSpace=wrap;html=1;fillColor=none;fontSize=13;strokeColor=#CC0066;strokeWidth=2;" parent="1" vertex="1">
          <mxGeometry x="80" y="180" width="560" height="361" as="geometry"/>
        </mxCell>
        <mxCell id="9naMcL1XCLHJEcqqBxTF-1" value="" style="endArrow=none;html=1;fontStyle=1;fontSize=13;strokeColor=#000000;dashed=1;strokeWidth=2;" parent="1" edge="1">
          <mxGeometry width="50" height="50" relative="1" as="geometry">
            <mxPoint x="220" y="680" as="sourcePoint"/>
            <mxPoint x="220" y="160" as="targetPoint"/>
          </mxGeometry>
        </mxCell>
        <mxCell id="9naMcL1XCLHJEcqqBxTF-3" value="&lt;b&gt;&lt;font style=&quot;font-size: 15px&quot;&gt;ATS ブラウザ&lt;/font&gt;&lt;/b&gt;" style="rounded=0;whiteSpace=wrap;html=1;fontSize=13;fillColor=none;" parent="1" vertex="1">
          <mxGeometry x="162" y="100" width="120" height="60" as="geometry"/>
        </mxCell>
        <mxCell id="9naMcL1XCLHJEcqqBxTF-4" value="&lt;b&gt;&lt;font style=&quot;font-size: 15px&quot;&gt;ATS サーバ&amp;nbsp;&lt;/font&gt;&lt;/b&gt;" style="rounded=0;whiteSpace=wrap;html=1;fontSize=13;fillColor=none;" parent="1" vertex="1">
          <mxGeometry x="321" y="100" width="120" height="60" as="geometry"/>
        </mxCell>
        <mxCell id="9naMcL1XCLHJEcqqBxTF-6" value="&lt;b&gt;&lt;font style=&quot;font-size: 15px&quot;&gt;Slack 認可サーバ&lt;br&gt;&lt;/font&gt;&lt;/b&gt;&lt;font style=&quot;font-size: 9px&quot;&gt;/oauth/authorize&lt;/font&gt;" style="rounded=0;whiteSpace=wrap;html=1;fillColor=none;fontSize=13;" parent="1" vertex="1">
          <mxGeometry x="480.5" y="100" width="160" height="60" as="geometry"/>
        </mxCell>
        <mxCell id="9naMcL1XCLHJEcqqBxTF-7" value="&lt;font style=&quot;font-size: 14px&quot;&gt;&lt;b&gt;Slack リソースサーバ&lt;/b&gt;&lt;br&gt;&lt;font style=&quot;font-size: 14px&quot;&gt;/api&amp;nbsp;&lt;/font&gt;&lt;/font&gt;" style="rounded=0;whiteSpace=wrap;html=1;fillColor=none;fontSize=13;" parent="1" vertex="1">
          <mxGeometry x="680" y="100" width="160" height="60" as="geometry"/>
        </mxCell>
        <mxCell id="9naMcL1XCLHJEcqqBxTF-9" value="" style="endArrow=none;dashed=1;html=1;strokeColor=#000000;strokeWidth=2;fontSize=13;" parent="1" edge="1">
          <mxGeometry width="50" height="50" relative="1" as="geometry">
            <mxPoint x="380" y="680" as="sourcePoint"/>
            <mxPoint x="380" y="160" as="targetPoint"/>
          </mxGeometry>
        </mxCell>
        <mxCell id="9naMcL1XCLHJEcqqBxTF-11" value="" style="endArrow=none;dashed=1;html=1;strokeColor=#000000;strokeWidth=2;fontSize=13;" parent="1" edge="1">
          <mxGeometry width="50" height="50" relative="1" as="geometry">
            <mxPoint x="560" y="680" as="sourcePoint"/>
            <mxPoint x="560" y="160" as="targetPoint"/>
          </mxGeometry>
        </mxCell>
        <mxCell id="9naMcL1XCLHJEcqqBxTF-13" value="" style="endArrow=none;dashed=1;html=1;strokeColor=#000000;strokeWidth=2;fontSize=13;" parent="1" edge="1">
          <mxGeometry width="50" height="50" relative="1" as="geometry">
            <mxPoint x="760" y="680" as="sourcePoint"/>
            <mxPoint x="760" y="160" as="targetPoint"/>
          </mxGeometry>
        </mxCell>
        <mxCell id="9naMcL1XCLHJEcqqBxTF-17" value="" style="endArrow=classic;html=1;strokeColor=#000000;strokeWidth=2;fontSize=13;" parent="1" edge="1">
          <mxGeometry width="50" height="50" relative="1" as="geometry">
            <mxPoint x="220" y="240" as="sourcePoint"/>
            <mxPoint x="560" y="240" as="targetPoint"/>
          </mxGeometry>
        </mxCell>
        <mxCell id="9naMcL1XCLHJEcqqBxTF-18" value="" style="endArrow=classic;html=1;strokeColor=#000000;strokeWidth=2;fontSize=13;dashed=1;dashPattern=1 1;" parent="1" edge="1">
          <mxGeometry width="50" height="50" relative="1" as="geometry">
            <mxPoint x="560" y="280" as="sourcePoint"/>
            <mxPoint x="220" y="280" as="targetPoint"/>
          </mxGeometry>
        </mxCell>
        <mxCell id="9naMcL1XCLHJEcqqBxTF-19" value="" style="endArrow=classic;html=1;strokeColor=#000000;strokeWidth=2;fontSize=13;" parent="1" edge="1">
          <mxGeometry width="50" height="50" relative="1" as="geometry">
            <mxPoint x="220" y="320" as="sourcePoint"/>
            <mxPoint x="560" y="320" as="targetPoint"/>
          </mxGeometry>
        </mxCell>
        <mxCell id="9naMcL1XCLHJEcqqBxTF-20" value="" style="endArrow=classic;html=1;strokeColor=#000000;strokeWidth=2;fontSize=13;dashed=1;dashPattern=1 1;" parent="1" edge="1">
          <mxGeometry width="50" height="50" relative="1" as="geometry">
            <mxPoint x="560" y="360" as="sourcePoint"/>
            <mxPoint x="220" y="360" as="targetPoint"/>
          </mxGeometry>
        </mxCell>
        <mxCell id="9naMcL1XCLHJEcqqBxTF-21" value="" style="curved=1;endArrow=classic;html=1;strokeColor=#000000;strokeWidth=2;fontSize=13;" parent="1" edge="1">
          <mxGeometry width="50" height="50" relative="1" as="geometry">
            <mxPoint x="210" y="370" as="sourcePoint"/>
            <mxPoint x="210" y="390" as="targetPoint"/>
            <Array as="points">
              <mxPoint x="165" y="380"/>
            </Array>
          </mxGeometry>
        </mxCell>
        <mxCell id="9naMcL1XCLHJEcqqBxTF-24" value="" style="endArrow=classic;html=1;strokeColor=#000000;strokeWidth=2;fontSize=13;" parent="1" edge="1">
          <mxGeometry width="50" height="50" relative="1" as="geometry">
            <mxPoint x="220" y="400" as="sourcePoint"/>
            <mxPoint x="380" y="400" as="targetPoint"/>
          </mxGeometry>
        </mxCell>
        <mxCell id="9naMcL1XCLHJEcqqBxTF-25" value="" style="endArrow=classic;html=1;strokeColor=#000000;strokeWidth=2;fontSize=13;" parent="1" edge="1">
          <mxGeometry width="50" height="50" relative="1" as="geometry">
            <mxPoint x="380" y="440" as="sourcePoint"/>
            <mxPoint x="560" y="440" as="targetPoint"/>
          </mxGeometry>
        </mxCell>
        <mxCell id="9naMcL1XCLHJEcqqBxTF-26" value="" style="endArrow=classic;html=1;strokeColor=#000000;strokeWidth=2;fontSize=13;dashed=1;dashPattern=1 1;" parent="1" edge="1">
          <mxGeometry width="50" height="50" relative="1" as="geometry">
            <mxPoint x="560" y="480" as="sourcePoint"/>
            <mxPoint x="380" y="480" as="targetPoint"/>
          </mxGeometry>
        </mxCell>
        <mxCell id="9naMcL1XCLHJEcqqBxTF-27" value="" style="endArrow=classic;html=1;strokeColor=#000000;strokeWidth=2;fontSize=13;" parent="1" edge="1">
          <mxGeometry width="50" height="50" relative="1" as="geometry">
            <mxPoint x="380" y="580" as="sourcePoint"/>
            <mxPoint x="760" y="580" as="targetPoint"/>
          </mxGeometry>
        </mxCell>
        <mxCell id="9naMcL1XCLHJEcqqBxTF-28" value="" style="endArrow=classic;html=1;strokeColor=#000000;strokeWidth=2;fontSize=13;dashed=1;dashPattern=1 1;" parent="1" edge="1">
          <mxGeometry width="50" height="50" relative="1" as="geometry">
            <mxPoint x="760" y="620" as="sourcePoint"/>
            <mxPoint x="380" y="620" as="targetPoint"/>
          </mxGeometry>
        </mxCell>
        <mxCell id="9naMcL1XCLHJEcqqBxTF-29" value="管理者" style="shape=umlActor;verticalLabelPosition=bottom;labelBackgroundColor=#ffffff;verticalAlign=top;html=1;outlineConnect=0;fillColor=none;fontSize=13;fontStyle=1" parent="1" vertex="1">
          <mxGeometry x="85" y="70" width="30" height="60" as="geometry"/>
        </mxCell>
        <mxCell id="9naMcL1XCLHJEcqqBxTF-32" value="" style="endArrow=none;dashed=1;html=1;strokeColor=#000000;strokeWidth=2;fontSize=13;" parent="1" edge="1">
          <mxGeometry width="50" height="50" relative="1" as="geometry">
            <mxPoint x="99" y="680" as="sourcePoint"/>
            <mxPoint x="99" y="160" as="targetPoint"/>
          </mxGeometry>
        </mxCell>
        <mxCell id="9naMcL1XCLHJEcqqBxTF-33" value="" style="endArrow=block;html=1;strokeColor=#000000;strokeWidth=2;fontSize=13;rounded=1;endFill=0;" parent="1" edge="1">
          <mxGeometry width="50" height="50" relative="1" as="geometry">
            <mxPoint x="100" y="300" as="sourcePoint"/>
            <mxPoint x="220" y="300" as="targetPoint"/>
          </mxGeometry>
        </mxCell>
        <mxCell id="9naMcL1XCLHJEcqqBxTF-36" value="" style="endArrow=classic;html=1;dashed=1;dashPattern=1 1;strokeColor=#000000;strokeWidth=2;fontSize=13;" parent="1" edge="1">
          <mxGeometry width="50" height="50" relative="1" as="geometry">
            <mxPoint x="380" y="520" as="sourcePoint"/>
            <mxPoint x="220" y="520" as="targetPoint"/>
          </mxGeometry>
        </mxCell>
        <mxCell id="9naMcL1XCLHJEcqqBxTF-39" value="" style="rounded=1;whiteSpace=wrap;html=1;strokeColor=#007FFF;strokeWidth=2;fillColor=none;fontSize=13;" parent="1" vertex="1">
          <mxGeometry x="320" y="560" width="520" height="80" as="geometry"/>
        </mxCell>
        <mxCell id="9naMcL1XCLHJEcqqBxTF-40" value="&lt;b&gt;&lt;font style=&quot;font-size: 15px&quot; color=&quot;#007fff&quot;&gt;リソースの取得&lt;/font&gt;&lt;/b&gt;" style="text;html=1;resizable=0;points=[];autosize=1;align=left;verticalAlign=top;spacingTop=-4;fontSize=13;" parent="1" vertex="1">
          <mxGeometry x="735" y="650" width="120" height="20" as="geometry"/>
        </mxCell>
        <mxCell id="9naMcL1XCLHJEcqqBxTF-41" value="&lt;font color=&quot;#cc0066&quot; size=&quot;1&quot;&gt;&lt;b style=&quot;font-size: 15px&quot;&gt;認証&lt;/b&gt;&lt;/font&gt;" style="text;html=1;resizable=0;points=[];autosize=1;align=left;verticalAlign=top;spacingTop=-4;fontSize=13;" parent="1" vertex="1">
          <mxGeometry x="35" y="220" width="50" height="20" as="geometry"/>
        </mxCell>
        <mxCell id="9naMcL1XCLHJEcqqBxTF-42" value="&lt;font style=&quot;font-size: 11px&quot;&gt;2. 認可リクエスト&lt;/font&gt;" style="text;html=1;resizable=0;points=[];autosize=1;align=left;verticalAlign=top;spacingTop=-4;fontSize=13;" parent="1" vertex="1">
          <mxGeometry x="222" y="220" width="100" height="20" as="geometry"/>
        </mxCell>
        <mxCell id="9naMcL1XCLHJEcqqBxTF-43" value="&lt;font style=&quot;font-size: 11px&quot;&gt;3. 権限移譲の同意画面&lt;/font&gt;" style="text;html=1;resizable=0;points=[];autosize=1;align=left;verticalAlign=top;spacingTop=-4;fontSize=13;" parent="1" vertex="1">
          <mxGeometry x="240" y="260" width="130" height="20" as="geometry"/>
        </mxCell>
        <mxCell id="9naMcL1XCLHJEcqqBxTF-44" value="&lt;font style=&quot;font-size: 11px&quot;&gt;4. 同意&lt;/font&gt;" style="text;html=1;resizable=0;points=[];autosize=1;align=left;verticalAlign=top;spacingTop=-4;fontSize=13;" parent="1" vertex="1">
          <mxGeometry x="105" y="280" width="50" height="20" as="geometry"/>
        </mxCell>
        <mxCell id="9naMcL1XCLHJEcqqBxTF-45" value="" style="endArrow=block;html=1;strokeColor=#000000;strokeWidth=2;fontSize=13;endFill=0;" parent="1" edge="1">
          <mxGeometry width="50" height="50" relative="1" as="geometry">
            <mxPoint x="102" y="210" as="sourcePoint"/>
            <mxPoint x="222" y="210" as="targetPoint"/>
          </mxGeometry>
        </mxCell>
        <mxCell id="9naMcL1XCLHJEcqqBxTF-47" value="&lt;font style=&quot;font-size: 11px&quot;&gt;1. ボタンクリック&lt;/font&gt;" style="text;html=1;resizable=0;points=[];autosize=1;align=left;verticalAlign=top;spacingTop=-4;fontSize=13;" parent="1" vertex="1">
          <mxGeometry x="105" y="190" width="100" height="20" as="geometry"/>
        </mxCell>
        <mxCell id="9naMcL1XCLHJEcqqBxTF-49" value="&lt;font style=&quot;font-size: 11px&quot;&gt;4. 同意&lt;/font&gt;" style="text;html=1;resizable=0;points=[];autosize=1;align=left;verticalAlign=top;spacingTop=-4;fontSize=13;" parent="1" vertex="1">
          <mxGeometry x="222" y="300.5" width="50" height="20" as="geometry"/>
        </mxCell>
        <mxCell id="9naMcL1XCLHJEcqqBxTF-50" value="&lt;font style=&quot;font-size: 11px&quot;&gt;5. code&lt;/font&gt;" style="text;html=1;resizable=0;points=[];autosize=1;align=left;verticalAlign=top;spacingTop=-4;fontSize=13;" parent="1" vertex="1">
          <mxGeometry x="241" y="340.5" width="50" height="20" as="geometry"/>
        </mxCell>
        <mxCell id="9naMcL1XCLHJEcqqBxTF-54" value="&lt;font style=&quot;font-size: 11px&quot;&gt;6. code&lt;/font&gt;" style="text;html=1;resizable=0;points=[];autosize=1;align=left;verticalAlign=top;spacingTop=-4;fontSize=13;" parent="1" vertex="1">
          <mxGeometry x="223" y="380.5" width="50" height="20" as="geometry"/>
        </mxCell>
        <mxCell id="9naMcL1XCLHJEcqqBxTF-55" value="&lt;font style=&quot;font-size: 11px&quot;&gt;リダイレクトURL&lt;/font&gt;" style="text;html=1;resizable=0;points=[];autosize=1;align=left;verticalAlign=top;spacingTop=-4;fontSize=13;strokeColor=#000000;" parent="1" vertex="1">
          <mxGeometry x="387" y="390.5" width="100" height="20" as="geometry"/>
        </mxCell>
        <mxCell id="9naMcL1XCLHJEcqqBxTF-56" value="&lt;font style=&quot;font-size: 11px&quot;&gt;7. トークンのリクエスト&lt;/font&gt;" style="text;html=1;resizable=0;points=[];autosize=1;align=left;verticalAlign=top;spacingTop=-4;fontSize=13;" parent="1" vertex="1">
          <mxGeometry x="383" y="420" width="140" height="20" as="geometry"/>
        </mxCell>
        <mxCell id="9naMcL1XCLHJEcqqBxTF-57" value="&lt;font style=&quot;font-size: 11px&quot;&gt;8. 管理者のユーザトークン&lt;/font&gt;" style="text;html=1;resizable=0;points=[];autosize=1;align=left;verticalAlign=top;spacingTop=-4;fontSize=13;" parent="1" vertex="1">
          <mxGeometry x="400" y="460" width="150" height="20" as="geometry"/>
        </mxCell>
        <mxCell id="9naMcL1XCLHJEcqqBxTF-59" value="&lt;font style=&quot;font-size: 11px&quot;&gt;9. トークンの永続化&lt;/font&gt;" style="text;html=1;resizable=0;points=[];autosize=1;align=left;verticalAlign=top;spacingTop=-4;fontSize=13;" parent="1" vertex="1">
          <mxGeometry x="383" y="501" width="120" height="20" as="geometry"/>
        </mxCell>
        <mxCell id="9naMcL1XCLHJEcqqBxTF-60" value="&lt;font style=&quot;font-size: 11px&quot;&gt;10. 設定ページに戻る&lt;/font&gt;" style="text;html=1;resizable=0;points=[];autosize=1;align=left;verticalAlign=top;spacingTop=-4;fontSize=13;" parent="1" vertex="1">
          <mxGeometry x="233" y="499" width="120" height="20" as="geometry"/>
        </mxCell>
        <mxCell id="9naMcL1XCLHJEcqqBxTF-63" value="&lt;font style=&quot;font-size: 11px&quot;&gt;1. トークンを用いてリソース要求&amp;nbsp;&lt;/font&gt;" style="text;html=1;resizable=0;points=[];autosize=1;align=left;verticalAlign=top;spacingTop=-4;fontSize=13;" parent="1" vertex="1">
          <mxGeometry x="381" y="560" width="180" height="20" as="geometry"/>
        </mxCell>
        <mxCell id="9naMcL1XCLHJEcqqBxTF-64" value="&lt;font style=&quot;font-size: 11px&quot;&gt;2. リソース&lt;/font&gt;" style="text;html=1;resizable=0;points=[];autosize=1;align=left;verticalAlign=top;spacingTop=-4;fontSize=13;" parent="1" vertex="1">
          <mxGeometry x="400" y="600" width="70" height="20" as="geometry"/>
        </mxCell>
      </root>
    </mxGraphModel>
  </diagram>
  <diagram id="9nNHqA7FS7BQC3ueR8be" name="slack-remove">
    <mxGraphModel dx="931" dy="554" grid="1" gridSize="10" guides="1" tooltips="1" connect="1" arrows="1" fold="1" page="1" pageScale="1" pageWidth="4681" pageHeight="3300" math="0" shadow="0">
      <root>
        <mxCell id="_74wOghxSdFLPmrhpOwI-0"/>
        <mxCell id="_74wOghxSdFLPmrhpOwI-1" parent="_74wOghxSdFLPmrhpOwI-0"/>
        <mxCell id="cHbXNUqCDdFCQ7vO-iAq-0" value="" style="shape=image;html=1;verticalAlign=top;verticalLabelPosition=bottom;labelBackgroundColor=#ffffff;imageAspect=0;aspect=fixed;image=https://cdn4.iconfinder.com/data/icons/logos-and-brands/512/306_Slack_logo-128.png" vertex="1" parent="_74wOghxSdFLPmrhpOwI-1">
          <mxGeometry x="685" y="279" width="69" height="69" as="geometry"/>
        </mxCell>
        <mxCell id="cHbXNUqCDdFCQ7vO-iAq-1" value="&lt;b style=&quot;font-size: 12px;&quot;&gt;メンバー&lt;/b&gt;" style="shape=umlActor;verticalLabelPosition=bottom;labelBackgroundColor=#ffffff;verticalAlign=top;html=1;outlineConnect=0;fontSize=12;" vertex="1" parent="_74wOghxSdFLPmrhpOwI-1">
          <mxGeometry x="570" y="279" width="30" height="60" as="geometry"/>
        </mxCell>
        <mxCell id="SzwPzcRi4Rm5v84ECvZb-3" value="" style="shape=flexArrow;endArrow=classic;html=1;strokeWidth=1;" edge="1" parent="_74wOghxSdFLPmrhpOwI-1">
          <mxGeometry width="50" height="50" relative="1" as="geometry">
            <mxPoint x="617" y="320" as="sourcePoint"/>
            <mxPoint x="667" y="320" as="targetPoint"/>
          </mxGeometry>
        </mxCell>
        <mxCell id="SzwPzcRi4Rm5v84ECvZb-5" value="&lt;font style=&quot;font-size: 11px&quot;&gt;アプリの削除&lt;/font&gt;" style="text;html=1;resizable=0;points=[];autosize=1;align=left;verticalAlign=top;spacingTop=-4;" vertex="1" parent="_74wOghxSdFLPmrhpOwI-1">
          <mxGeometry x="605" y="281" width="80" height="20" as="geometry"/>
        </mxCell>
        <mxCell id="SzwPzcRi4Rm5v84ECvZb-6" value="" style="endArrow=classic;html=1;strokeWidth=1;" edge="1" parent="_74wOghxSdFLPmrhpOwI-1">
          <mxGeometry width="50" height="50" relative="1" as="geometry">
            <mxPoint x="770" y="310.5" as="sourcePoint"/>
            <mxPoint x="850" y="310.5" as="targetPoint"/>
          </mxGeometry>
        </mxCell>
        <mxCell id="SzwPzcRi4Rm5v84ECvZb-7" value="&lt;font style=&quot;font-size: 11px&quot;&gt;post&lt;br&gt;app_uninstalled&lt;/font&gt;" style="text;html=1;resizable=0;points=[];autosize=1;align=left;verticalAlign=top;spacingTop=-4;" vertex="1" parent="_74wOghxSdFLPmrhpOwI-1">
          <mxGeometry x="770" y="270" width="90" height="30" as="geometry"/>
        </mxCell>
        <mxCell id="SzwPzcRi4Rm5v84ECvZb-8" value="" style="endArrow=classic;html=1;strokeWidth=1;" edge="1" parent="_74wOghxSdFLPmrhpOwI-1">
          <mxGeometry width="50" height="50" relative="1" as="geometry">
            <mxPoint x="850" y="330" as="sourcePoint"/>
            <mxPoint x="770" y="330" as="targetPoint"/>
          </mxGeometry>
        </mxCell>
        <mxCell id="SzwPzcRi4Rm5v84ECvZb-9" value="ok" style="text;html=1;resizable=0;points=[];autosize=1;align=left;verticalAlign=top;spacingTop=-4;" vertex="1" parent="_74wOghxSdFLPmrhpOwI-1">
          <mxGeometry x="768" y="334" width="30" height="20" as="geometry"/>
        </mxCell>
        <mxCell id="SzwPzcRi4Rm5v84ECvZb-12" value="&lt;font style=&quot;font-size: 12px&quot;&gt;ワークススペース&lt;/font&gt;" style="text;html=1;resizable=0;points=[];autosize=1;align=left;verticalAlign=top;spacingTop=-4;fontStyle=1" vertex="1" parent="_74wOghxSdFLPmrhpOwI-1">
          <mxGeometry x="670" y="348" width="110" height="20" as="geometry"/>
        </mxCell>
        <mxCell id="SzwPzcRi4Rm5v84ECvZb-17" value="ATSサーバ&amp;nbsp;" style="whiteSpace=wrap;html=1;aspect=fixed;fontSize=12;align=center;fillColor=none;" vertex="1" parent="_74wOghxSdFLPmrhpOwI-1">
          <mxGeometry x="870" y="279" width="69" height="69" as="geometry"/>
        </mxCell>
        <mxCell id="SzwPzcRi4Rm5v84ECvZb-18" value="&lt;b&gt;ATS&lt;/b&gt;" style="text;html=1;resizable=0;points=[];autosize=1;align=left;verticalAlign=top;spacingTop=-4;fontSize=12;" vertex="1" parent="_74wOghxSdFLPmrhpOwI-1">
          <mxGeometry x="890" y="348" width="40" height="20" as="geometry"/>
        </mxCell>
      </root>
    </mxGraphModel>
  </diagram>
</mxfile>
